<svg width="30" height="34" viewBox="0 0 30 34" fill="none" xmlns="http://www.w3.org/2000/svg">
<path d="M26.6667 3.33333H25V0H21.6667V3.33333H8.33333V0H5V3.33333H3.33333C2.44928 3.33333 1.60143 3.68452 0.976311 4.30964C0.351189 4.93476 0 5.78261 0 6.66667V30C0 30.8841 0.351189 31.7319 0.976311 32.357C1.60143 32.9821 2.44928 33.3333 3.33333 33.3333H26.6667C28.5 33.3333 30 31.8333 30 30V6.66667C30 4.83333 28.5 3.33333 26.6667 3.33333ZM15 8.33333C17.7667 8.33333 20 10.5667 20 13.3333C20 16.1 17.7667 18.3333 15 18.3333C12.2333 18.3333 10 16.1 10 13.3333C10 10.5667 12.2333 8.33333 15 8.33333ZM25 28.3333H5V26.6667C5 23.3333 11.6667 21.5 15 21.5C18.3333 21.5 25 23.3333 25 26.6667V28.3333Z" fill="#FDB623"/>
</svg>
