<svg width="30" height="34" viewBox="0 0 30 34" fill="none" xmlns="http://www.w3.org/2000/svg">
<path d="M12.0833 26.0833L8.54167 22.5417C8.20833 22.2083 8.04167 21.8056 8.04167 21.3333C8.04167 20.8611 8.20833 20.4583 8.54167 20.125C8.875 19.7917 9.27778 19.625 9.75 19.625C10.2222 19.625 10.625 19.7917 10.9583 20.125L13.25 22.4167L19.0417 16.625C19.375 16.2917 19.7778 16.125 20.25 16.125C20.7222 16.125 21.125 16.2917 21.4583 16.625C21.7917 16.9583 21.9583 17.3611 21.9583 17.8333C21.9583 18.3056 21.7917 18.7083 21.4583 19.0417L14.4167 26.0833C14.1111 26.3889 13.7222 26.5417 13.25 26.5417C12.7778 26.5417 12.3889 26.3889 12.0833 26.0833ZM3.33333 33.3333C2.41667 33.3333 1.63167 33.0072 0.978333 32.355C0.326111 31.7017 0 30.9167 0 30V6.66667C0 5.75 0.326111 4.96556 0.978333 4.31333C1.63167 3.66 2.41667 3.33333 3.33333 3.33333H5V1.66667C5 1.19444 5.15944 0.798333 5.47833 0.478333C5.79833 0.159444 6.19444 0 6.66667 0C7.13889 0 7.535 0.159444 7.855 0.478333C8.17389 0.798333 8.33333 1.19444 8.33333 1.66667V3.33333H21.6667V1.66667C21.6667 1.19444 21.8267 0.798333 22.1467 0.478333C22.4656 0.159444 22.8611 0 23.3333 0C23.8056 0 24.2011 0.159444 24.52 0.478333C24.84 0.798333 25 1.19444 25 1.66667V3.33333H26.6667C27.5833 3.33333 28.3683 3.66 29.0217 4.31333C29.6739 4.96556 30 5.75 30 6.66667V30C30 30.9167 29.6739 31.7017 29.0217 32.355C28.3683 33.0072 27.5833 33.3333 26.6667 33.3333H3.33333ZM3.33333 30H26.6667V13.3333H3.33333V30Z" fill="#FDB623"/>
</svg>
