<svg width="30" height="30" viewBox="0 0 30 30" fill="none" xmlns="http://www.w3.org/2000/svg">
<path d="M1.66667 0C1.22464 0 0.800716 0.175595 0.488155 0.488155C0.175595 0.800716 0 1.22464 0 1.66667C0 9.18113 2.98511 16.3878 8.29864 21.7014C13.6122 27.0149 20.8189 30 28.3333 30C28.7754 30 29.1993 29.8244 29.5118 29.5118C29.8244 29.1993 30 28.7754 30 28.3333V22.5C30 22.058 29.8244 21.634 29.5118 21.3215C29.1993 21.0089 28.7754 20.8333 28.3333 20.8333C26.25 20.8333 24.25 20.5 22.3833 19.8833C22.0903 19.79 21.7774 19.7779 21.478 19.8483C21.1787 19.9188 20.904 20.0691 20.6833 20.2833L17.0167 23.95C12.2853 21.5437 8.43963 17.698 6.03333 12.9667L9.7 9.28333C9.92074 9.0739 10.0772 8.80587 10.151 8.51066C10.2248 8.21546 10.2129 7.90534 10.1167 7.61667C9.48442 5.69676 9.16369 3.688 9.16667 1.66667C9.16667 1.22464 8.99107 0.800716 8.67851 0.488155C8.36595 0.175595 7.94203 0 7.5 0H1.66667ZM26.6667 13.3333V10.8333H20.8333L30 1.66667L28.3333 0L19.1667 9.16667V3.33333H16.6667V13.3333H26.6667Z" fill="#FDB623"/>
</svg>
