<svg width="37" height="37" viewBox="0 0 37 37" fill="none" xmlns="http://www.w3.org/2000/svg">
<path d="M16.6667 25V15H11.6667V11.6667H25V15H20V25H16.6667ZM0 36.6667V26.6667H3.33333V10H0V0H10V3.33333H26.6667V0H36.6667V10H33.3333V26.6667H36.6667V36.6667H26.6667V33.3333H10V36.6667H0ZM10 30H26.6667V26.6667H30V10H26.6667V6.66667H10V10H6.66667V26.6667H10V30ZM3.33333 6.66667H6.66667V3.33333H3.33333V6.66667ZM30 6.66667H33.3333V3.33333H30V6.66667ZM30 33.3333H33.3333V30H30V33.3333ZM3.33333 33.3333H6.66667V30H3.33333V33.3333Z" fill="#FDB623"/>
</svg>
