<svg width="40" height="29" viewBox="0 0 40 29" fill="none" xmlns="http://www.w3.org/2000/svg">
<path d="M10.5833 18.9167L7.08333 15.3333C8.72222 13.6944 10.6461 12.3961 12.855 11.4383C15.0628 10.4794 17.4444 10 20 10C22.5556 10 24.9378 10.4861 27.1467 11.4583C29.3544 12.4306 31.2778 13.75 32.9167 15.4167L29.4167 18.9167C28.1944 17.6944 26.7778 16.7361 25.1667 16.0417C23.5556 15.3472 21.8333 15 20 15C18.1667 15 16.4444 15.3472 14.8333 16.0417C13.2222 16.7361 11.8056 17.6944 10.5833 18.9167ZM3.5 11.8333L0 8.33333C2.55556 5.72222 5.54167 3.68056 8.95833 2.20833C12.375 0.736111 16.0556 0 20 0C23.9444 0 27.625 0.736111 31.0417 2.20833C34.4583 3.68056 37.4444 5.72222 40 8.33333L36.5 11.8333C34.3611 9.69445 31.8822 8.02056 29.0633 6.81167C26.2433 5.60389 23.2222 5 20 5C16.7778 5 13.7567 5.60389 10.9367 6.81167C8.11778 8.02056 5.63889 9.69445 3.5 11.8333ZM20 28.3333L25.875 22.4167C25.125 21.6667 24.25 21.0761 23.25 20.645C22.25 20.215 21.1667 20 20 20C18.8333 20 17.75 20.215 16.75 20.645C15.75 21.0761 14.875 21.6667 14.125 22.4167L20 28.3333Z" fill="#FDB623"/>
</svg>
